<?xml version="1.0" standalone="no"?>
<!DOCTYPE svg PUBLIC "-//W3C//DTD SVG 20010904//EN"
 "http://www.w3.org/TR/2001/REC-SVG-20010904/DTD/svg10.dtd">
<svg version="1.0" xmlns="http://www.w3.org/2000/svg"
 width="512.000000pt" height="512.000000pt" viewBox="0 0 512.000000 512.000000"
 preserveAspectRatio="xMidYMid meet">
<metadata>
Created by potrace 1.14, written by Peter Selinger 2001-2017
</metadata>
<g transform="translate(0.000000,512.000000) scale(0.100000,-0.100000)"
fill="#000000" stroke="none">
<path d="M2425 3934 c-540 -481 -876 -916 -1005 -1301 -113 -338 -59 -727 144
-1038 174 -267 469 -458 787 -510 603 -97 1159 235 1348 805 53 162 72 383 47
548 -66 433 -407 919 -1046 1491 -74 66 -137 121 -140 121 -3 0 -63 -52 -135
-116z m-415 -1702 c19 -15 30 -40 47 -106 29 -112 62 -173 133 -240 93 -89
198 -132 354 -145 86 -7 100 -11 126 -36 35 -34 44 -67 30 -111 -20 -60 -49
-74 -160 -74 -215 0 -411 93 -561 267 -52 60 -122 205 -142 297 -14 60 -14 74
-2 103 29 68 114 90 175 45z"/>
</g>
</svg>
