<?xml version="1.0" standalone="no"?>
<!DOCTYPE svg PUBLIC "-//W3C//DTD SVG 20010904//EN"
 "http://www.w3.org/TR/2001/REC-SVG-20010904/DTD/svg10.dtd">
<svg version="1.0" xmlns="http://www.w3.org/2000/svg"
 width="976.000000pt" height="976.000000pt" viewBox="0 0 976.000000 976.000000"
 preserveAspectRatio="xMidYMid meet">
<metadata>
Created by potrace 1.14, written by Peter Selinger 2001-2017
</metadata>
<g transform="translate(0.000000,976.000000) scale(0.100000,-0.100000)"
fill="#000000" stroke="none">
<path d="M2364 9569 c-126 -105 -243 -203 -260 -217 -17 -15 -53 -45 -79 -67
-27 -22 -54 -46 -61 -52 -7 -7 -15 -13 -18 -13 -3 0 -14 -8 -24 -17 -10 -10
-35 -31 -54 -48 -20 -16 -56 -47 -79 -67 -60 -50 -83 -69 -116 -95 -15 -12
-48 -40 -72 -62 -24 -23 -47 -41 -50 -41 -3 0 -24 -17 -47 -38 -23 -20 -58
-50 -79 -67 -21 -16 -45 -37 -54 -45 -16 -14 -115 -97 -136 -113 -5 -4 -22
-17 -36 -30 -14 -12 -47 -40 -74 -62 -52 -43 -125 -104 -165 -139 -14 -11 -48
-39 -75 -61 -53 -42 -83 -68 -120 -100 -12 -11 -44 -38 -70 -60 -27 -22 -59
-49 -72 -60 l-23 -20 27 -55 c16 -30 31 -57 34 -60 12 -11 119 -254 125 -285
2 -11 8 -29 13 -40 19 -41 69 -220 87 -315 18 -97 34 -193 39 -240 4 -30 9
-73 11 -95 11 -102 18 -269 18 -482 1 -128 5 -233 9 -233 5 0 5 -6 1 -12 -11
-18 -11 -318 0 -318 5 0 4 -6 -1 -12 -10 -15 -10 -408 0 -425 4 -7 4 -14 0
-16 -7 -5 -10 -596 -3 -622 1 -5 1 -12 0 -15 -8 -19 -3 -420 5 -420 7 0 7 -3
0 -8 -12 -9 -14 -402 -2 -402 5 0 5 -6 0 -13 -11 -18 -10 -61 2 -69 7 -5 7 -8
0 -8 -16 0 -10 -361 10 -550 2 -19 6 -60 9 -90 3 -30 8 -66 11 -80 4 -14 8
-38 10 -55 4 -26 13 -74 30 -150 2 -11 13 -54 24 -95 12 -41 23 -84 26 -94 2
-11 15 -49 27 -85 12 -36 21 -69 20 -73 -1 -5 2 -8 8 -8 5 0 10 -6 10 -13 0
-13 63 -163 98 -235 39 -78 134 -238 165 -277 4 -5 35 -47 68 -92 34 -46 66
-83 72 -83 6 0 8 -3 4 -6 -6 -6 22 -38 119 -137 89 -90 142 -136 148 -130 3 4
6 1 6 -5 0 -6 35 -38 77 -69 43 -32 82 -62 88 -66 80 -63 310 -185 445 -236
87 -34 113 -44 153 -60 12 -6 72 -29 132 -52 61 -23 114 -46 120 -51 5 -4 14
-8 21 -8 6 0 29 -8 50 -17 22 -9 42 -16 47 -15 4 1 7 -2 7 -6 0 -5 6 -9 13 -9
11 0 60 -20 142 -58 17 -8 53 -23 80 -34 28 -10 77 -31 110 -46 33 -15 105
-47 160 -72 167 -76 390 -186 397 -197 4 -6 8 -8 8 -4 0 4 27 -9 61 -28 33
-18 65 -34 70 -34 5 0 9 -4 9 -10 0 -5 4 -10 10 -10 22 0 409 -244 490 -310
14 -11 54 -42 90 -70 77 -59 208 -170 258 -217 17 -17 19 -16 40 4 10 10 42
38 71 63 30 25 59 50 65 55 19 18 159 129 201 159 22 17 42 32 45 35 3 4 12
11 22 16 9 6 56 37 105 69 48 32 111 74 138 91 75 50 262 155 274 155 6 0 11
5 11 10 0 6 9 10 19 10 11 0 21 3 23 8 3 7 205 109 353 177 44 20 108 50 143
66 34 16 64 29 66 29 2 0 24 9 50 20 25 12 49 21 53 21 5 0 13 4 18 9 6 5 33
17 60 28 76 29 327 132 350 142 11 5 56 23 100 40 44 17 94 37 110 44 17 8 55
22 85 32 30 11 58 23 61 27 3 5 9 8 13 8 3 0 13 2 21 4 8 3 22 7 30 10 25 8
27 8 130 62 55 29 103 53 107 53 5 0 8 5 8 10 0 6 5 10 10 10 18 0 203 131
295 209 96 82 195 179 253 250 21 25 44 52 52 61 19 19 27 31 119 166 76 110
193 327 226 419 10 28 21 55 25 60 3 6 13 30 20 55 7 25 18 51 23 58 5 6 6 12
3 12 -4 0 -2 9 4 21 6 11 13 30 15 41 3 11 11 44 20 73 18 63 62 264 69 320 3
22 8 58 11 80 25 171 28 341 31 1935 2 888 5 1640 8 1670 3 30 7 73 10 95 3
22 8 65 11 95 3 30 13 93 21 140 9 47 17 94 19 105 2 11 11 49 20 85 9 36 18
73 20 82 18 91 154 432 180 450 5 4 7 8 3 8 -4 0 9 27 28 61 l36 60 -24 22
c-13 13 -48 43 -78 67 -30 25 -71 59 -90 77 -19 18 -38 33 -41 33 -3 0 -17 10
-31 23 -45 41 -203 175 -250 212 -46 36 -121 99 -145 123 -13 12 -28 22 -33
22 -4 0 -10 3 -12 8 -1 4 -43 41 -93 82 -49 41 -95 80 -101 85 -6 6 -30 26
-54 45 -24 19 -48 40 -54 45 -6 6 -33 28 -61 50 -27 22 -59 49 -71 60 -12 11
-36 31 -54 45 -18 14 -46 37 -62 53 -16 15 -33 27 -38 27 -4 0 -10 4 -12 8 -1
5 -46 44 -98 87 -52 43 -102 85 -111 94 -9 9 -69 59 -133 111 -64 52 -116 98
-116 102 0 4 -5 8 -10 8 -6 0 -23 11 -38 24 -15 14 -38 34 -52 45 -14 11 -32
26 -40 33 -8 7 -32 28 -53 46 l-39 32 -2292 0 -2293 0 -229 -191z"/>
</g>
</svg>
